<?xml version="1.0" encoding="UTF-8" standalone="no"?>
<!-- Created with Inkscape (http://www.inkscape.org/) -->

<svg
   xmlns:dc="http://purl.org/dc/elements/1.1/"
   xmlns:cc="http://creativecommons.org/ns#"
   xmlns:rdf="http://www.w3.org/1999/02/22-rdf-syntax-ns#"
   xmlns:svg="http://www.w3.org/2000/svg"
   xmlns="http://www.w3.org/2000/svg"
   xmlns:sodipodi="http://sodipodi.sourceforge.net/DTD/sodipodi-0.dtd"
   xmlns:inkscape="http://www.inkscape.org/namespaces/inkscape"
   width="600"
   height="150"
   id="svg2"
   version="1.1"
   inkscape:version="0.48.2 r9819"
   sodipodi:docname="mustache.svg">
  <defs
     id="defs4" />
  <sodipodi:namedview
     id="base"
     pagecolor="#ffffff"
     bordercolor="#666666"
     borderopacity="1.0"
     inkscape:pageopacity="0.0"
     inkscape:pageshadow="2"
     inkscape:zoom="0.98994949"
     inkscape:cx="274.77953"
     inkscape:cy="-18.44465"
     inkscape:document-units="px"
     inkscape:current-layer="layer1"
     showgrid="false"
     inkscape:window-width="1210"
     inkscape:window-height="756"
     inkscape:window-x="0"
     inkscape:window-y="0"
     inkscape:window-maximized="1" />
  <metadata
     id="metadata7">
    <rdf:RDF>
      <cc:Work
         rdf:about="">
        <dc:format>image/svg+xml</dc:format>
        <dc:type
           rdf:resource="http://purl.org/dc/dcmitype/StillImage" />
        <dc:title></dc:title>
      </cc:Work>
    </rdf:RDF>
  </metadata>
  <g
     inkscape:label="Layer 1"
     inkscape:groupmode="layer"
     id="layer1"
     transform="translate(0,-902.36218)">
    <path
       transform="matrix(1.4672016,0,0,1.331987,2.115864,246.73606)"
       d="m 227.14286,513.07648 a 19.285715,19.285715 0 1 1 -38.57143,0 19.285715,19.285715 0 1 1 38.57143,0 z"
       sodipodi:ry="19.285715"
       sodipodi:rx="19.285715"
       sodipodi:cy="513.07648"
       sodipodi:cx="207.85715"
       id="path3823"
       style="fill:none;stroke:#000000;stroke-width:3;stroke-miterlimit:4;stroke-opacity:1;stroke-dasharray:none"
       sodipodi:type="arc" />
    <rect
       transform="matrix(0.74040023,0.67216628,-0.74040023,0.67216628,0,0)"
       y="469.02127"
       x="888.21198"
       height="32.211601"
       width="1.3846233"
       id="rect3825"
       style="fill:none;stroke:#000000;stroke-width:2.81905532;stroke-miterlimit:4;stroke-opacity:1;stroke-dasharray:none" />
    <rect
       transform="matrix(0.74040023,0.67216628,-0.74040023,0.67216628,0,0)"
       style="fill:none;stroke:#000000;stroke-width:2.81905532;stroke-miterlimit:4;stroke-opacity:1;stroke-dasharray:none"
       id="rect3827"
       width="1.3846233"
       height="32.211601"
       x="896.71942"
       y="469.02127" />
    <path
       id="path3831"
       d="m 324.38385,977.79333 c -12.74835,0 -23.07297,8.19636 -23.07297,18.30783 0,2.16038 0.4766,4.21924 1.34287,6.14354 0.0338,40.022 -23.3695,36.0923 -66.49251,7.2187 36.50214,46.1898 59.89421,67.6745 105.31371,-1.0751 3.71476,-3.2495 5.9819,-7.5552 5.9819,-12.28714 0,-10.11147 -10.32462,-18.30783 -23.073,-18.30783 z"
       inkscape:connector-curvature="0" />
    <path
       inkscape:connector-curvature="0"
       d="m 362.94348,977.79333 c 12.74836,0 23.07298,8.19636 23.07298,18.30783 0,2.16038 -0.4766,4.21924 -1.34288,6.14354 -0.0338,40.022 23.36951,36.0923 66.49252,7.2187 -36.50214,46.1898 -59.8942,67.6745 -105.31373,-1.0751 -3.71475,-3.2495 -5.98188,-7.5552 -5.98188,-12.28714 0,-10.11147 10.32461,-18.30783 23.07299,-18.30783 z"
       id="path3833" />
    <rect
       y="927.29297"
       x="265.68814"
       height="6.6599355"
       width="14.672017"
       id="rect3835"
       style="fill:#000000;fill-opacity:1;stroke:none" />
    <g
       id="g3862"
       transform="matrix(1.8891845,0,0,1.7150806,-34.848326,389.49195)"
       style="fill:#d44c00;fill-opacity:1">
      <path
         d="m 251.27783,357.82861 -3.04687,22.03125 -8.24219,0 -3.20313,-22.03125 5.625,0 1.875,16.05469 c 0.41666,-5.33853 0.84635,-10.69009 1.28907,-16.05469 l 5.70312,0"
         style="font-size:40px;font-style:normal;font-variant:normal;font-weight:normal;font-stretch:normal;line-height:125%;letter-spacing:0px;word-spacing:0px;fill:#d44c00;fill-opacity:1;stroke:none;font-family:HeadLineA;-inkscape-font-specification:HeadLineA"
         id="path3840"
         inkscape:connector-curvature="0" />
      <path
         d="m 281.90283,379.85986 -6.05469,0 0,-15.27343 c 0,-0.36457 0,-0.63801 0,-0.82032 0,-1.0156 -0.0391,-1.66665 -0.11718,-1.95312 -0.0781,-0.31248 -0.32553,-0.46873 -0.74219,-0.46875 -0.4948,2e-5 -0.78126,0.28647 -0.85938,0.85937 -0.0781,0.5469 -0.11719,1.18492 -0.11718,1.91407 -10e-6,0.36459 -10e-6,0.65105 0,0.85937 l 0,14.88281 -6.01563,0 0,-22.03125 6.17188,0 -0.15625,2.03125 c 0.88541,-1.48435 2.16145,-2.22654 3.82812,-2.22656 0.62499,2e-5 1.15884,0.0651 1.60156,0.19531 0.46874,0.10419 0.88541,0.33857 1.25,0.70313 0.54687,0.57294 0.88541,1.27606 1.01563,2.10937 0.13019,0.80731 0.1953,2.07033 0.19531,3.78907 l 0,15.42968"
         style="font-size:40px;font-style:normal;font-variant:normal;font-weight:normal;font-stretch:normal;line-height:125%;letter-spacing:0px;word-spacing:0px;fill:#d44c00;fill-opacity:1;stroke:none;font-family:HeadLineA;-inkscape-font-specification:HeadLineA"
         id="path3844"
         inkscape:connector-curvature="0" />
      <path
         d="m 293.11377,379.85986 -2.42188,0 c -1.45834,0 -2.44792,-0.0651 -2.96875,-0.19531 -0.96354,-0.23437 -1.67969,-0.79427 -2.14843,-1.67969 -0.15626,-0.31249 -0.26042,-0.88541 -0.3125,-1.71875 -0.0521,-0.85937 -0.0781,-1.9401 -0.0781,-3.24218 l 0,-11.17188 -1.28906,0 0,-3.47656 1.28906,0 0,-3.51563 6.09375,0 0,3.51563 1.60156,0 0,3.47656 -1.60156,0 0,11.75781 c -10e-6,1.40626 0.0651,2.21355 0.19531,2.42188 0.1302,0.20834 0.67708,0.3125 1.64063,0.3125 l 0,3.51562"
         style="font-size:40px;font-style:normal;font-variant:normal;font-weight:normal;font-stretch:normal;line-height:125%;letter-spacing:0px;word-spacing:0px;fill:#d44c00;fill-opacity:1;stroke:none;font-family:HeadLineA;-inkscape-font-specification:HeadLineA"
         id="path3846"
         inkscape:connector-curvature="0" />
      <path
         d="m 309.01221,379.85986 -6.17188,0 0.11719,-1.83593 c -0.44272,0.67708 -0.93751,1.15885 -1.48438,1.44531 -0.52084,0.28646 -1.21094,0.42969 -2.07031,0.42969 -0.20834,0 -0.36459,0 -0.46875,0 -0.625,0 -1.14583,-0.0391 -1.5625,-0.11719 -0.41667,-0.10417 -0.79427,-0.33854 -1.13281,-0.70313 -0.52084,-0.57291 -0.84636,-1.22395 -0.97656,-1.95312 -0.13021,-0.75521 -0.19532,-1.86198 -0.19532,-3.32031 0,-0.46875 0,-0.83333 0,-1.09375 l 0,-14.88282 6.09375,0 0,17.03125 c 0,0.4948 0.0521,0.8724 0.15625,1.13282 0.13021,0.23437 0.35156,0.35156 0.66407,0.35156 0.46874,0 0.76822,-0.24739 0.89843,-0.74219 0.0521,-0.20833 0.0781,-0.57291 0.0781,-1.09375 l 0,-16.67969 6.05469,0 0,22.03125"
         style="font-size:40px;font-style:normal;font-variant:normal;font-weight:normal;font-stretch:normal;line-height:125%;letter-spacing:0px;word-spacing:0px;fill:#d44c00;fill-opacity:1;stroke:none;font-family:HeadLineA;-inkscape-font-specification:HeadLineA"
         id="path3848"
         inkscape:connector-curvature="0" />
      <path
         d="m 320.92627,365.21143 -0.42969,0 c -1.51042,10e-6 -2.44792,0.48178 -2.8125,1.44531 -0.23438,0.59897 -0.35157,2.09636 -0.35156,4.49219 l 0,8.71093 -6.05469,0 0,-22.03125 6.05469,0 -0.27344,2.89063 c 0.46874,-1.04165 0.95051,-1.79686 1.44531,-2.26563 0.625,-0.57289 1.43229,-0.91143 2.42188,-1.01562 l 0,7.77344"
         style="font-size:40px;font-style:normal;font-variant:normal;font-weight:normal;font-stretch:normal;line-height:125%;letter-spacing:0px;word-spacing:0px;fill:#d44c00;fill-opacity:1;stroke:none;font-family:HeadLineA;-inkscape-font-specification:HeadLineA"
         id="path3850"
         inkscape:connector-curvature="0" />
      <path
         d="m 336.04346,372.24268 c -2e-5,0.3125 -2e-5,0.54688 0,0.70312 -2e-5,1.04167 -0.0651,1.87501 -0.19532,2.5 -0.13022,0.59896 -0.45574,1.28907 -0.97656,2.07031 -0.59897,0.9375 -1.28907,1.57552 -2.07031,1.91407 -0.75522,0.3125 -1.80991,0.46875 -3.16406,0.46875 -1.77084,0 -3.21615,-0.29948 -4.33594,-0.89844 -1.11979,-0.625 -1.90104,-1.61458 -2.34375,-2.96875 -0.20833,-0.59896 -0.32552,-1.34114 -0.35156,-2.22656 -0.026,-0.88541 -0.0391,-1.53645 -0.0391,-1.95313 l 0,-6.40625 c 0,-0.91144 0.026,-1.69269 0.0781,-2.34375 0.0781,-0.65102 0.23437,-1.28904 0.46875,-1.91406 0.44271,-1.17186 1.17187,-2.01821 2.1875,-2.53906 1.04166,-0.54686 2.34374,-0.82029 3.90625,-0.82032 1.35416,3e-5 2.48697,0.19534 3.39844,0.58594 0.91144,0.36461 1.65363,0.97658 2.22656,1.83594 0.46874,0.70314 0.78124,1.56252 0.9375,2.57812 0.18228,1.01564 0.27342,2.18752 0.27344,3.51563 l 0,2.92969 -7.46094,0 0,4.72656 c -1e-5,0.67709 0.026,1.23698 0.0781,1.67969 0.0521,0.44271 0.33854,0.66406 0.85938,0.66406 0.4427,0 0.74218,-0.19531 0.89844,-0.58594 0.18228,-0.39062 0.27343,-0.95051 0.27343,-1.67969 l 0,-2.65625 5.35157,0 0,0.82032 m -5.70313,-6.60157 0,-1.5625 c -1e-5,-0.31248 -1e-5,-0.53383 0,-0.66406 -1e-5,-0.78123 -0.0521,-1.31509 -0.15625,-1.60156 -0.10417,-0.28644 -0.32553,-0.42967 -0.66406,-0.42969 -0.39063,2e-5 -0.65105,0.11721 -0.78125,0.35156 -0.10417,0.2344 -0.15626,0.65106 -0.15625,1.25 l 0,2.65625 1.75781,0"
         style="font-size:40px;font-style:normal;font-variant:normal;font-weight:normal;font-stretch:normal;line-height:125%;letter-spacing:0px;word-spacing:0px;fill:#d44c00;fill-opacity:1;stroke:none;font-family:HeadLineA;-inkscape-font-specification:HeadLineA"
         id="path3852"
         inkscape:connector-curvature="0" />
      <path
         d="m 266.04346,372.24268 c -2e-5,0.3125 -2e-5,0.54688 0,0.70312 -2e-5,1.04167 -0.0651,1.87501 -0.19532,2.5 -0.13022,0.59896 -0.45574,1.28907 -0.97656,2.07031 -0.59897,0.9375 -1.28907,1.57552 -2.07031,1.91407 -0.75522,0.3125 -1.80991,0.46875 -3.16406,0.46875 -1.77084,0 -3.21615,-0.29948 -4.33594,-0.89844 -1.11979,-0.625 -1.90104,-1.61458 -2.34375,-2.96875 -0.20833,-0.59896 -0.32552,-1.34114 -0.35156,-2.22656 -0.026,-0.88541 -0.0391,-1.53645 -0.0391,-1.95313 l 0,-6.40625 c 0,-0.91144 0.026,-1.69269 0.0781,-2.34375 0.0781,-0.65102 0.23437,-1.28904 0.46875,-1.91406 0.44271,-1.17186 1.17187,-2.01821 2.1875,-2.53906 1.04166,-0.54686 2.34374,-0.82029 3.90625,-0.82032 1.35416,3e-5 2.48697,0.19534 3.39844,0.58594 0.91144,0.36461 1.65363,0.97658 2.22656,1.83594 0.46874,0.70314 0.78124,1.56252 0.9375,2.57812 0.18228,1.01564 0.27342,2.18752 0.27344,3.51563 l 0,2.92969 -7.46094,0 0,4.72656 c -1e-5,0.67709 0.026,1.23698 0.0781,1.67969 0.0521,0.44271 0.33854,0.66406 0.85938,0.66406 0.4427,0 0.74218,-0.19531 0.89844,-0.58594 0.18228,-0.39062 0.27343,-0.95051 0.27343,-1.67969 l 0,-2.65625 5.35157,0 0,0.82032 m -5.70313,-6.60157 0,-1.5625 c -1e-5,-0.31248 -1e-5,-0.53383 0,-0.66406 -1e-5,-0.78123 -0.0521,-1.31509 -0.15625,-1.60156 -0.10417,-0.28644 -0.32553,-0.42967 -0.66406,-0.42969 -0.39063,2e-5 -0.65105,0.11721 -0.78125,0.35156 -0.10417,0.2344 -0.15626,0.65106 -0.15625,1.25 l 0,2.65625 1.75781,0"
         style="font-size:40px;font-style:normal;font-variant:normal;font-weight:normal;font-stretch:normal;line-height:125%;letter-spacing:0px;word-spacing:0px;fill:#d44c00;fill-opacity:1;stroke:none;font-family:HeadLineA;-inkscape-font-specification:HeadLineA"
         id="path3842"
         inkscape:connector-curvature="0" />
      <path
         d="m 235.37939,379.85986 -6.01562,0 0,-1.60156 c -0.59897,0.625 -1.19793,1.05469 -1.79688,1.28906 -0.57292,0.23438 -1.26302,0.35157 -2.07031,0.35157 -0.75521,0 -1.43229,-0.11719 -2.03125,-0.35157 -0.59896,-0.23437 -1.06771,-0.61197 -1.40625,-1.13281 -0.23437,-0.41666 -0.40365,-0.92448 -0.50781,-1.52344 -0.0781,-0.62499 -0.11719,-1.35416 -0.11719,-2.1875 0,-0.31249 0,-0.54687 0,-0.70312 l 0,-10.3125 c 0,-1.45832 0.0651,-2.55207 0.19531,-3.28125 0.13021,-0.75519 0.49479,-1.40623 1.09375,-1.95313 0.18229,-0.15623 0.40365,-0.27341 0.66407,-0.35156 0.28645,-0.10414 0.67708,-0.15623 1.17187,-0.15625 0.44271,2e-5 0.76823,2e-5 0.97656,0 0.9375,2e-5 1.67969,0.0781 2.22657,0.23438 0.54686,0.13023 1.08072,0.48179 1.60156,1.05468 l 0,-6.25 6.01562,0 0,26.875 m -6.01562,-6.28906 0,-10.19531 c -10e-6,-0.78123 -0.0521,-1.31509 -0.15625,-1.60156 -0.10418,-0.28644 -0.37761,-0.42967 -0.82031,-0.42969 -0.62501,2e-5 -0.93751,0.46877 -0.9375,1.40625 l 0,11.40625 c -1e-5,0.83334 0.0391,1.40625 0.11718,1.71875 0.0781,0.3125 0.32552,0.46875 0.74219,0.46875 0.54687,0 0.85937,-0.29948 0.9375,-0.89844 0.0781,-0.59895 0.11718,-1.22395 0.11719,-1.875"
         style="font-size:40px;font-style:normal;font-variant:normal;font-weight:normal;font-stretch:normal;line-height:125%;letter-spacing:0px;word-spacing:0px;fill:#d44c00;fill-opacity:1;stroke:none;font-family:HeadLineA;-inkscape-font-specification:HeadLineA"
         id="path3838"
         inkscape:connector-curvature="0" />
    </g>
    <g
       id="g3921"
       transform="matrix(1.8891845,0,0,1.7150806,-34.848326,384.05559)"
       style="fill:#ff6600;fill-opacity:1">
      <path
         d="m 40.751036,382.95148 -6.09375,0 0,-18.16406 -2.851562,18.16406 -4.335938,0 -2.929687,-17.77344 0,17.77344 -6.09375,0 0,-26.875 9.375,0 c 0.286447,2.03128 0.507801,3.61982 0.664062,4.76563 0.49478,3.4896 0.872384,6.08074 1.132813,7.77343 0.234362,-1.35415 0.494778,-3.11196 0.78125,-5.27343 0.182278,-1.35415 0.37759,-3.02081 0.585937,-5 0.07811,-0.75519 0.156236,-1.51039 0.234375,-2.26563 l 9.53125,0 0,26.875"
         style="font-size:40px;font-style:normal;font-variant:normal;font-weight:normal;font-stretch:normal;line-height:125%;letter-spacing:0px;word-spacing:0px;fill:#ff6600;fill-opacity:1;stroke:none;font-family:HeadLineA;-inkscape-font-specification:HeadLineA"
         id="path3873"
         inkscape:connector-curvature="0" />
      <path
         d="m 57.040099,382.95148 -6.171875,0 0.117187,-1.83594 c -0.442717,0.67709 -0.937508,1.15886 -1.484375,1.44532 -0.52084,0.28645 -1.210944,0.42968 -2.070312,0.42968 -0.208339,0 -0.364589,0 -0.46875,0 -0.625005,0 -1.145837,-0.0391 -1.5625,-0.11718 -0.41667,-0.10417 -0.794274,-0.33854 -1.132813,-0.70313 -0.520835,-0.57291 -0.846355,-1.22395 -0.976562,-1.95312 -0.13021,-0.75521 -0.195314,-1.86198 -0.195313,-3.32032 -10e-7,-0.46874 -10e-7,-0.83332 0,-1.09375 l 0,-14.88281 6.09375,0 0,17.03125 c -7e-6,0.4948 0.05208,0.8724 0.15625,1.13281 0.130201,0.23438 0.351555,0.35157 0.664063,0.35157 0.468741,0 0.76822,-0.2474 0.898437,-0.74219 0.05208,-0.20833 0.07812,-0.57291 0.07813,-1.09375 l 0,-16.67969 6.054688,0 0,22.03125"
         style="font-size:40px;font-style:normal;font-variant:normal;font-weight:normal;font-stretch:normal;line-height:125%;letter-spacing:0px;word-spacing:0px;fill:#ff6600;fill-opacity:1;stroke:none;font-family:HeadLineA;-inkscape-font-specification:HeadLineA"
         id="path3875"
         inkscape:connector-curvature="0" />
      <path
         d="m 72.040099,376.42804 c -1.5e-5,2.31772 -0.429702,3.97136 -1.289063,4.96094 -0.963553,1.11979 -2.617198,1.67969 -4.960937,1.67969 -1.30209,0 -2.395839,-0.11719 -3.28125,-0.35156 -0.885421,-0.23438 -1.614587,-0.65104 -2.1875,-1.25 -0.546877,-0.59896 -0.91146,-1.28906 -1.09375,-2.07032 -0.182293,-0.80728 -0.273439,-1.84895 -0.273438,-3.125 l 0,-0.74218 5.351563,0 0,2.03125 c -7e-6,1.25 0.377597,1.875 1.132812,1.875 0.677075,0 1.015617,-0.625 1.015625,-1.875 -8e-6,-0.91146 -0.104175,-1.60156 -0.3125,-2.07032 -0.208341,-0.46874 -0.651049,-0.89843 -1.328125,-1.28906 -0.651048,-0.39061 -1.31511,-0.79426 -1.992187,-1.21094 -0.677088,-0.44269 -1.276046,-0.85936 -1.796875,-1.25 -0.781253,-0.5729 -1.328127,-1.14582 -1.640625,-1.71875 -0.390627,-0.72915 -0.585939,-1.74477 -0.585938,-3.04687 -10e-7,-0.49478 -10e-7,-0.98957 0,-1.48438 0.02604,-0.52081 0.130207,-1.04164 0.3125,-1.5625 0.364582,-1.09373 1.028644,-1.87498 1.992188,-2.34375 0.989579,-0.46872 2.330723,-0.7031 4.023437,-0.70312 1.458325,2e-5 2.65624,0.16929 3.59375,0.50781 0.96353,0.33856 1.692696,0.91148 2.1875,1.71875 0.338528,0.49481 0.533841,1.00262 0.585938,1.52344 0.07811,0.52085 0.117173,1.21095 0.117187,2.07031 l 0,0.89844 -5.429687,0 0,-1.67969 c -9e-6,-1.01561 -0.286467,-1.52342 -0.859375,-1.52344 -0.729174,2e-5 -1.093757,0.65106 -1.09375,1.95313 -7e-6,1.17189 0.572909,2.08335 1.71875,2.73437 l 3.632812,2.30469 c 0.911446,0.59897 1.549466,1.27605 1.914063,2.03125 0.364569,0.75522 0.54686,1.75782 0.546875,3.00781"
         style="font-size:40px;font-style:normal;font-variant:normal;font-weight:normal;font-stretch:normal;line-height:125%;letter-spacing:0px;word-spacing:0px;fill:#ff6600;fill-opacity:1;stroke:none;font-family:HeadLineA;-inkscape-font-specification:HeadLineA"
         id="path3877"
         inkscape:connector-curvature="0" />
      <path
         d="m 83.172911,382.95148 -2.421875,0 c -1.45834,0 -2.447922,-0.0651 -2.96875,-0.19531 -0.963545,-0.23438 -1.679691,-0.79427 -2.148437,-1.67969 -0.156253,-0.3125 -0.26042,-0.88541 -0.3125,-1.71875 -0.05209,-0.85937 -0.07813,-1.9401 -0.07813,-3.24219 l 0,-11.17187 -1.289063,0 0,-3.47656 1.289063,0 0,-3.51563 6.09375,0 0,3.51563 1.601562,0 0,3.47656 -1.601562,0 0,11.75781 c -9e-6,1.40626 0.06509,2.21355 0.195312,2.42188 0.1302,0.20833 0.677074,0.3125 1.640625,0.3125 l 0,3.51562"
         style="font-size:40px;font-style:normal;font-variant:normal;font-weight:normal;font-stretch:normal;line-height:125%;letter-spacing:0px;word-spacing:0px;fill:#ff6600;fill-opacity:1;stroke:none;font-family:HeadLineA;-inkscape-font-specification:HeadLineA"
         id="path3879"
         inkscape:connector-curvature="0" />
      <path
         d="m 98.876037,382.95148 -5.898438,0 0,-1.95312 c -0.390634,0.75521 -0.846363,1.27604 -1.367188,1.5625 -0.494799,0.28645 -1.223964,0.42968 -2.1875,0.42968 -0.833338,0 -1.562504,-0.10416 -2.1875,-0.3125 -0.598961,-0.23437 -1.028648,-0.58593 -1.289062,-1.05468 -0.260419,-0.46875 -0.44271,-1.00261 -0.546875,-1.60157 -0.104168,-0.62499 -0.156252,-1.28905 -0.15625,-1.99218 l 0,-1.79688 c -2e-6,-1.58853 0.18229,-2.66926 0.546875,-3.24219 0.390623,-0.59894 1.315101,-1.22394 2.773437,-1.875 l 3.046875,-1.36718 c 0.468742,-0.23437 0.781242,-0.5078 0.9375,-0.82032 0.182283,-0.33852 0.273429,-0.91144 0.273438,-1.71875 -9e-6,-1.84894 -0.312509,-2.77341 -0.9375,-2.77343 -0.312508,2e-5 -0.559903,0.10418 -0.742188,0.3125 -0.182298,0.20835 -0.273444,0.6771 -0.273437,1.40625 l 0,2.53906 -5.625,0 0,-0.70313 c -2e-6,-1.40623 0.104165,-2.52602 0.3125,-3.35937 0.234373,-0.83332 0.729164,-1.61456 1.484375,-2.34375 0.572913,-0.54685 1.223954,-0.8854 1.953125,-1.01563 0.755202,-0.13018 1.770826,-0.19529 3.046875,-0.19531 1.536448,2e-5 2.760406,0.13023 3.671875,0.39063 0.937487,0.26043 1.640613,0.75523 2.109373,1.48437 0.49478,0.72919 0.79426,1.73179 0.89844,3.00781 0.10415,1.27606 0.15623,3.25523 0.15625,5.9375 l 0,11.05469 m -6.054688,-4.88281 0,-5.58594 c -0.833342,0.70314 -1.341154,1.22397 -1.523438,1.5625 -0.286465,0.54688 -0.429694,1.4323 -0.429687,2.65625 -7e-6,0.4948 -7e-6,0.97657 0,1.44531 0.07812,0.85938 0.42968,1.28907 1.054687,1.28907 0.59895,0 0.898429,-0.45573 0.898438,-1.36719"
         style="font-size:40px;font-style:normal;font-variant:normal;font-weight:normal;font-stretch:normal;line-height:125%;letter-spacing:0px;word-spacing:0px;fill:#ff6600;fill-opacity:1;stroke:none;font-family:HeadLineA;-inkscape-font-specification:HeadLineA"
         id="path3881"
         inkscape:connector-curvature="0" />
      <path
         d="m 114.07135,373.88898 c -10e-6,0.62501 -10e-6,1.09376 0,1.40625 -10e-6,1.95313 -0.15626,3.35938 -0.46875,4.21875 -0.31251,0.83334 -0.82032,1.57552 -1.52344,2.22656 -0.54688,0.52084 -1.17188,0.85938 -1.875,1.01563 -0.67709,0.15625 -1.57553,0.23437 -2.69531,0.23437 -1.58855,0 -2.89063,-0.23437 -3.90625,-0.70312 -0.98958,-0.49479 -1.73177,-1.3151 -2.22656,-2.46094 -0.20834,-0.54687 -0.36459,-1.27604 -0.46875,-2.1875 -0.10417,-0.91145 -0.15625,-1.90103 -0.15625,-2.96875 l 0,-6.25 c 0,-1.17186 0.026,-2.07029 0.0781,-2.69531 0.0781,-0.65102 0.2474,-1.23696 0.50782,-1.75781 0.49479,-1.04165 1.26301,-1.80988 2.30468,-2.30469 1.06771,-0.52081 2.33073,-0.78123 3.78907,-0.78125 2.57811,2e-5 4.37498,0.71617 5.39062,2.14844 0.52082,0.72918 0.85936,1.57554 1.01563,2.53906 0.15623,0.96356 0.23436,2.18751 0.23437,3.67187 l -5.46875,0 0,-3.24218 c -1e-5,-1.04165 -0.31251,-1.56248 -0.9375,-1.5625 -0.39063,2e-5 -0.63803,0.16929 -0.74219,0.50781 -0.10417,0.31252 -0.15625,0.89845 -0.15625,1.75781 l 0,10.35156 c 0,0.8073 0.0781,1.40626 0.23438,1.79688 0.15624,0.39063 0.4427,0.58594 0.85937,0.58594 0.4427,0 0.71614,-0.23437 0.82032,-0.70313 0.1302,-0.49479 0.1953,-1.23697 0.19531,-2.22656 l 0,-2.61719 5.19531,0"
         style="font-size:40px;font-style:normal;font-variant:normal;font-weight:normal;font-stretch:normal;line-height:125%;letter-spacing:0px;word-spacing:0px;fill:#ff6600;fill-opacity:1;stroke:none;font-family:HeadLineA;-inkscape-font-specification:HeadLineA"
         id="path3883"
         inkscape:connector-curvature="0" />
      <path
         d="m 129.8526,382.95148 -6.05469,0 0,-15.50781 c 0,-0.93748 -0.026,-1.66665 -0.0781,-2.1875 -0.0521,-0.52082 -0.32553,-0.78123 -0.82031,-0.78125 -0.39064,2e-5 -0.65105,0.20835 -0.78125,0.625 -0.13022,0.39064 -0.19532,1.09377 -0.19532,2.10937 l 0,15.74219 -6.01562,0 0,-26.875 6.01562,0 0,6.01563 c 0.52083,-0.46873 1.04166,-0.78123 1.5625,-0.9375 0.52083,-0.15623 1.19791,-0.23436 2.03125,-0.23438 0.88541,2e-5 1.65364,0.14325 2.30469,0.42969 0.67707,0.26044 1.17186,0.69012 1.48438,1.28906 0.23436,0.46877 0.37759,1.11981 0.42968,1.95313 0.0781,0.80731 0.11718,1.86199 0.11719,3.16406 l 0,15.19531"
         style="font-size:40px;font-style:normal;font-variant:normal;font-weight:normal;font-stretch:normal;line-height:125%;letter-spacing:0px;word-spacing:0px;fill:#ff6600;fill-opacity:1;stroke:none;font-family:HeadLineA;-inkscape-font-specification:HeadLineA"
         id="path3885"
         inkscape:connector-curvature="0" />
      <path
         d="m 145.24323,375.33429 c -2e-5,0.31251 -2e-5,0.54689 0,0.70313 -2e-5,1.04167 -0.0651,1.875 -0.19532,2.5 -0.13022,0.59896 -0.45574,1.28906 -0.97656,2.07031 -0.59897,0.9375 -1.28907,1.57552 -2.07031,1.91406 -0.75522,0.3125 -1.80991,0.46875 -3.16406,0.46875 -1.77084,0 -3.21615,-0.29947 -4.33594,-0.89843 -1.1198,-0.625 -1.90104,-1.61458 -2.34375,-2.96875 -0.20834,-0.59896 -0.32552,-1.34114 -0.35156,-2.22657 -0.026,-0.88541 -0.0391,-1.53645 -0.0391,-1.95312 l 0,-6.40625 c 0,-0.91144 0.026,-1.69269 0.0781,-2.34375 0.0781,-0.65103 0.23437,-1.28905 0.46875,-1.91406 0.44271,-1.17186 1.17187,-2.01821 2.1875,-2.53907 1.04166,-0.54685 2.34374,-0.82029 3.90625,-0.82031 1.35416,2e-5 2.48697,0.19534 3.39844,0.58594 0.91144,0.3646 1.65363,0.97658 2.22656,1.83594 0.46874,0.70314 0.78124,1.56251 0.9375,2.57812 0.18228,1.01564 0.27342,2.18752 0.27344,3.51563 l 0,2.92968 -7.46094,0 0,4.72657 c -1e-5,0.67708 0.026,1.23698 0.0781,1.67968 0.0521,0.44272 0.33854,0.66407 0.85938,0.66407 0.4427,0 0.74218,-0.19531 0.89844,-0.58594 0.18228,-0.39062 0.27342,-0.95052 0.27343,-1.67969 l 0,-2.65625 5.35157,0 0,0.82031 m -5.70313,-6.60156 0,-1.5625 c -1e-5,-0.31248 -1e-5,-0.53384 0,-0.66406 -1e-5,-0.78123 -0.0521,-1.31509 -0.15625,-1.60156 -0.10417,-0.28644 -0.32553,-0.42967 -0.66406,-0.42969 -0.39063,2e-5 -0.65105,0.1172 -0.78125,0.35156 -0.10417,0.23439 -0.15626,0.65106 -0.15625,1.25 l 0,2.65625 1.75781,0"
         style="font-size:40px;font-style:normal;font-variant:normal;font-weight:normal;font-stretch:normal;line-height:125%;letter-spacing:0px;word-spacing:0px;fill:#ff6600;fill-opacity:1;stroke:none;font-family:HeadLineA;-inkscape-font-specification:HeadLineA"
         id="path3887"
         inkscape:connector-curvature="0" />
      <path
         d="m 161.29791,382.95148 -6.01562,0 0,-1.60156 c -0.59897,0.625 -1.19793,1.05469 -1.79688,1.28906 -0.57292,0.23438 -1.26302,0.35156 -2.07031,0.35156 -0.75521,0 -1.43229,-0.11718 -2.03125,-0.35156 -0.59896,-0.23437 -1.06771,-0.61198 -1.40625,-1.13281 -0.23437,-0.41667 -0.40365,-0.92448 -0.50781,-1.52344 -0.0781,-0.62499 -0.11719,-1.35416 -0.11719,-2.1875 0,-0.31249 0,-0.54687 0,-0.70312 l 0,-10.3125 c 0,-1.45832 0.0651,-2.55207 0.19531,-3.28125 0.13021,-0.75519 0.49479,-1.40623 1.09375,-1.95313 0.18229,-0.15623 0.40365,-0.27341 0.66407,-0.35156 0.28645,-0.10415 0.67708,-0.15623 1.17187,-0.15625 0.44271,2e-5 0.76823,2e-5 0.97656,0 0.9375,2e-5 1.67968,0.0781 2.22657,0.23437 0.54686,0.13023 1.08072,0.4818 1.60156,1.05469 l 0,-6.25 6.01562,0 0,26.875 m -6.01562,-6.28906 0,-10.19531 c -1e-5,-0.78124 -0.0521,-1.31509 -0.15625,-1.60157 -0.10418,-0.28644 -0.37761,-0.42966 -0.82031,-0.42968 -0.62501,2e-5 -0.93751,0.46876 -0.9375,1.40625 l 0,11.40625 c -1e-5,0.83333 0.0391,1.40625 0.11718,1.71875 0.0781,0.3125 0.32552,0.46875 0.74219,0.46875 0.54687,0 0.85937,-0.29948 0.9375,-0.89844 0.0781,-0.59895 0.11718,-1.22395 0.11719,-1.875"
         style="font-size:40px;font-style:normal;font-variant:normal;font-weight:normal;font-stretch:normal;line-height:125%;letter-spacing:0px;word-spacing:0px;fill:#ff6600;fill-opacity:1;stroke:none;font-family:HeadLineA;-inkscape-font-specification:HeadLineA"
         id="path3889"
         inkscape:connector-curvature="0" />
    </g>
    <path
       d="m 236.19061,1009.463 c 7.87234,9.9617 15.13364,18.7525 22.13887,25.7586 l 0,-12.2554 c -6.67451,-3.5346 -14.05331,-8.0894 -22.13887,-13.5032 z"
       id="path3900"
       inkscape:connector-curvature="0" />
  </g>
</svg>
